<svg width="512" height="512" xmlns="http://www.w3.org/2000/svg" version="1.1">
  <path fill="#ffffff" d="m425.367,72.125l-338.734,0c-47.881,0 -86.633,39.006 -86.633,86.634l0,194.482c0,47.839 38.98,86.633 86.633,86.633l338.734,0c47.741,0 86.633,-38.888 86.633,-86.633l0,-194.482c0,-47.69 -38.813,-86.634 -86.633,-86.634zm0,38.286c9.804,0 18.928,2.942 26.556,7.976l-184.231,120.58c-7.102,4.649 -16.282,4.649 -23.386,0l-184.23,-120.58c16.656,-10.993 -1.84,-7.976 365.291,-7.976zm-386.337,39.957l126.776,82.975l-127.52,116.879c0,-208.053 -0.319,-193.808 0.744,-199.854zm386.337,251.221l-338.734,0c-12.865,0 -24.563,-5.061 -33.235,-13.284l145.463,-133.326c59.59,39.003 66.629,31.186 114.278,0l145.463,133.326c-8.671,8.223 -20.37,13.284 -33.235,13.284zm48.349,-51.367l-127.52,-116.879l126.776,-82.975c1.063,6.046 0.744,-8.162 0.744,199.854z"></path>
</svg>
