<svg version="1.0" xmlns="http://www.w3.org/2000/svg" width="512.000000pt" height="512.000000pt">

<g transform="translate(0.000000,512.000000) scale(0.100000,-0.100000)" fill="#ffffff">
<path d="M2170 5102 c-54 -27 -77 -70 -84 -160 -29 -368 -40 -453 -91 -708
-19 -94 -35 -176 -35 -181 0 -12 147 -123 270 -203 114 -74 325 -179 432 -214
173 -56 345 -71 480 -40 l70 16 -7 54 c-20 166 -101 407 -201 606 -143 280
-376 569 -624 773 -96 79 -142 91 -210 57z"/>
<path d="M735 4785 c-75 -27 -91 -62 -121 -270 -24 -164 -24 -566 0 -750 68
-521 223 -959 472 -1332 105 -157 198 -269 333 -401 85 -83 103 -105 91 -112
-51 -33 -200 -103 -285 -135 -287 -107 -564 -142 -970 -121 -140 7 -152 6
-182 -13 -18 -11 -39 -31 -48 -45 -33 -49 -29 -91 30 -326 122 -489 217 -769
321 -942 59 -100 193 -286 221 -308 31 -24 81 -34 123 -25 18 4 117 75 243
174 303 239 484 373 542 400 171 81 249 91 745 101 425 9 527 17 704 59 434
103 724 356 968 846 79 157 144 323 247 628 50 146 105 301 122 344 125 317
254 424 649 542 116 35 153 61 172 122 17 57 3 97 -73 215 -80 123 -202 250
-291 302 -182 107 -409 126 -630 52 -154 -52 -269 -117 -477 -274 -256 -191
-417 -244 -704 -233 -214 8 -358 48 -602 167 -323 157 -623 386 -965 736 -170
174 -270 290 -398 462 -46 62 -93 119 -105 127 -35 22 -88 26 -132 10z"/>
</g>
</svg>
